# Wavefront OBJ file automatically generated by Tiled2Unity

# Vertices (Count = 277)
v -752 -16 0
v -768 -16 0
v -768 0 0
v -752 0 0
v -752 -32 0
v -768 -32 0
v -752 -48 0
v -768 -48 0
v -752 -64 0
v -768 -64 0
v -752 -80 0
v -768 -80 0
v -752 -96 0
v -768 -96 0
v -752 -112 0
v -768 -112 0
v -752 -128 0
v -768 -128 0
v -752 -144 0
v -768 -144 0
v -752 -160 0
v -768 -160 0
v -752 -176 0
v -768 -176 0
v -752 -192 0
v -768 -192 0
v -752 -208 0
v -768 -208 0
v -448 -224 0
v -464 -224 0
v -464 -208 0
v -448 -208 0
v -480 -224 0
v -480 -208 0
v -560 -224 0
v -576 -224 0
v -576 -208 0
v -560 -208 0
v -592 -224 0
v -592 -208 0
v -608 -224 0
v -608 -208 0
v -624 -224 0
v -624 -208 0
v -640 -224 0
v -640 -208 0
v -752 -224 0
v -768 -224 0
v 0 -240 0
v -16 -240 0
v -16 -224 0
v 0 -224 0
v -32 -240 0
v -32 -224 0
v -144 -240 0
v -160 -240 0
v -160 -224 0
v -144 -224 0
v -176 -240 0
v -176 -224 0
v -192 -240 0
v -192 -224 0
v -208 -240 0
v -208 -224 0
v -224 -240 0
v -224 -224 0
v -240 -240 0
v -240 -224 0
v -256 -240 0
v -256 -224 0
v -272 -240 0
v -272 -224 0
v -288 -240 0
v -288 -224 0
v -304 -240 0
v -304 -224 0
v -320 -240 0
v -320 -224 0
v -416 -240 0
v -432 -240 0
v -432 -224 0
v -416 -224 0
v -448 -240 0
v -464 -240 0
v -480 -240 0
v -496 -240 0
v -496 -224 0
v -512 -240 0
v -512 -224 0
v -528 -240 0
v -528 -224 0
v -544 -240 0
v -544 -224 0
v -560 -240 0
v -576 -240 0
v -592 -240 0
v -608 -240 0
v -624 -240 0
v -640 -240 0
v -656 -240 0
v -656 -224 0
v -672 -240 0
v -672 -224 0
v -688 -240 0
v -688 -224 0
v -704 -240 0
v -704 -224 0
v -720 -240 0
v -720 -224 0
v -736 -240 0
v -736 -224 0
v -752 -240 0
v -768 -240 0
v 0 -256 0
v -16 -256 0
v -32 -256 0
v -48 -256 0
v -48 -240 0
v -64 -256 0
v -64 -240 0
v -80 -256 0
v -80 -240 0
v -96 -256 0
v -96 -240 0
v -112 -256 0
v -112 -240 0
v -128 -256 0
v -128 -240 0
v -144 -256 0
v -160 -256 0
v -176 -256 0
v -192 -256 0
v -208 -256 0
v -224 -256 0
v -240 -256 0
v -256 -256 0
v -272 -256 0
v -288 -256 0
v -304 -256 0
v -320 -256 0
v -416 -256 0
v -432 -256 0
v -448 -256 0
v -464 -256 0
v -480 -256 0
v -496 -256 0
v -512 -256 0
v -528 -256 0
v -544 -256 0
v -560 -256 0
v -576 -256 0
v -592 -256 0
v -608 -256 0
v -624 -256 0
v -640 -256 0
v -656 -256 0
v -672 -256 0
v -688 -256 0
v -704 -256 0
v -720 -256 0
v -736 -256 0
v -752 -256 0
v -768 -256 0
v -288 -64 0
v -304 -64 0
v -304 -48 0
v -288 -48 0
v -320 -64 0
v -320 -48 0
v -336 -64 0
v -336 -48 0
v -352 -64 0
v -352 -48 0
v -368 -64 0
v -368 -48 0
v -432 -64 0
v -448 -64 0
v -448 -48 0
v -432 -48 0
v -464 -64 0
v -464 -48 0
v -480 -64 0
v -480 -48 0
v -496 -64 0
v -496 -48 0
v -512 -64 0
v -512 -48 0
v -528 -64 0
v -528 -48 0
v -544 -64 0
v -544 -48 0
v -560 -64 0
v -560 -48 0
v -32 -144 0
v -48 -144 0
v -48 -128 0
v -32 -128 0
v -64 -144 0
v -64 -128 0
v -80 -144 0
v -80 -128 0
v -96 -144 0
v -96 -128 0
v -112 -144 0
v -112 -128 0
v -128 -144 0
v -128 -128 0
v -144 -144 0
v -144 -128 0
v -176 -144 0
v -192 -144 0
v -192 -128 0
v -176 -128 0
v -208 -144 0
v -208 -128 0
v -224 -144 0
v -224 -128 0
v -240 -144 0
v -240 -128 0
v -256 -144 0
v -256 -128 0
v -288 -144 0
v -304 -144 0
v -304 -128 0
v -288 -128 0
v -320 -144 0
v -320 -128 0
v -336 -144 0
v -336 -128 0
v -352 -144 0
v -352 -128 0
v -368 -144 0
v -368 -128 0
v -160 -176 0
v -176 -176 0
v -176 -160 0
v -160 -160 0
v -192 -176 0
v -192 -160 0
v -208 -176 0
v -208 -160 0
v -224 -176 0
v -224 -160 0
v -240 -176 0
v -240 -160 0
v -256 -176 0
v -256 -160 0
v -176 -208 0
v -192 -208 0
v -192 -192 0
v -176 -192 0
v -208 -208 0
v -208 -192 0
v -224 -208 0
v -224 -192 0
v -240 -208 0
v -240 -192 0
v -256 -208 0
v -256 -192 0
v -48 -224 0
v -64 -224 0
v -64 -208 0
v -48 -208 0
v -80 -224 0
v -80 -208 0
v -96 -224 0
v -96 -208 0
v -112 -224 0
v -112 -208 0
v -128 -224 0
v -128 -208 0
v -352 -80 0
v -368 -80 0
v -352 -96 0
v -368 -96 0
v -352 -112 0
v -368 -112 0

# Texture Coorindates (Count = 76)
vt 0.0001220703 0.8126221
vt 0.0625 0.8126221
vt 0.0625 0.875
vt 0.0001220703 0.875
vt 0.1251221 0.8126221
vt 0.1875 0.8126221
vt 0.1875 0.875
vt 0.1251221 0.875
vt 0.06262207 0.8126221
vt 0.125 0.8126221
vt 0.125 0.875
vt 0.06262207 0.875
vt 0.1876221 0.8126221
vt 0.25 0.8126221
vt 0.25 0.875
vt 0.1876221 0.875
vt 0.1251221 0.7501221
vt 0.1875 0.7501221
vt 0.1875 0.8125
vt 0.1251221 0.8125
vt 0.1876221 0.7501221
vt 0.25 0.7501221
vt 0.25 0.8125
vt 0.1876221 0.8125
vt 0.0001220703 0.6251221
vt 0.0625 0.6251221
vt 0.0625 0.6875
vt 0.0001220703 0.6875
vt 0.06262207 0.6251221
vt 0.125 0.6251221
vt 0.125 0.6875
vt 0.06262207 0.6875
vt 0.1251221 0.6251221
vt 0.1875 0.6251221
vt 0.1875 0.6875
vt 0.1251221 0.6875
vt 0.06262207 0.9376221
vt 0.125 0.9376221
vt 0.125 1
vt 0.06262207 1
vt 0.1251221 0.9376221
vt 0.1875 0.9376221
vt 0.1875 1
vt 0.1251221 1
vt 0.1876221 0.9376221
vt 0.25 0.9376221
vt 0.25 1
vt 0.1876221 1
vt 0.1876221 0.6876221
vt 0.25 0.6876221
vt 0.25 0.75
vt 0.1876221 0.75
vt 0.06262207 0.8751221
vt 0.125 0.8751221
vt 0.125 0.9375
vt 0.06262207 0.9375
vt 0.1251221 0.8751221
vt 0.1875 0.8751221
vt 0.1875 0.9375
vt 0.1251221 0.9375
vt 0.0001220703 0.8751221
vt 0.0625 0.8751221
vt 0.0625 0.9375
vt 0.0001220703 0.9375
vt 0.1876221 0.8751221
vt 0.25 0.8751221
vt 0.25 0.9375
vt 0.1876221 0.9375
vt 0.0001220703 0.9376221
vt 0.0625 0.9376221
vt 0.0625 1
vt 0.0001220703 1
vt 0.1876221 0.6251221
vt 0.25 0.6251221
vt 0.25 0.6875
vt 0.1876221 0.6875

# Normal
vn 0 0 -1

# Groups (Count = 4)
g mesh_[00]_[00]
f  1/1/1  2/2/1  3/3/1  4/4/1 
f  5/1/1  6/2/1  2/3/1  1/4/1 
f  7/1/1  8/2/1  6/3/1  5/4/1 
f  9/1/1  10/2/1  8/3/1  7/4/1 
f  11/1/1  12/2/1  10/3/1  9/4/1 
f  13/1/1  14/2/1  12/3/1  11/4/1 
f  15/1/1  16/2/1  14/3/1  13/4/1 
f  17/1/1  18/2/1  16/3/1  15/4/1 
f  19/1/1  20/2/1  18/3/1  17/4/1 
f  21/1/1  22/2/1  20/3/1  19/4/1 
f  23/1/1  24/2/1  22/3/1  21/4/1 
f  25/1/1  26/2/1  24/3/1  23/4/1 
f  27/1/1  28/2/1  26/3/1  25/4/1 
f  29/5/1  30/6/1  31/7/1  32/8/1 
f  30/9/1  33/10/1  34/11/1  31/12/1 
f  35/9/1  36/10/1  37/11/1  38/12/1 
f  36/9/1  39/10/1  40/11/1  37/12/1 
f  39/9/1  41/10/1  42/11/1  40/12/1 
f  41/9/1  43/10/1  44/11/1  42/12/1 
f  43/9/1  45/10/1  46/11/1  44/12/1 
f  47/1/1  48/2/1  28/3/1  27/4/1 
f  49/9/1  50/10/1  51/11/1  52/12/1 
f  50/13/1  53/14/1  54/15/1  51/16/1 
f  55/5/1  56/6/1  57/7/1  58/8/1 
f  56/9/1  59/10/1  60/11/1  57/12/1 
f  59/9/1  61/10/1  62/11/1  60/12/1 
f  61/9/1  63/10/1  64/11/1  62/12/1 
f  63/9/1  65/10/1  66/11/1  64/12/1 
f  65/9/1  67/10/1  68/11/1  66/12/1 
f  67/9/1  69/10/1  70/11/1  68/12/1 
f  69/9/1  71/10/1  72/11/1  70/12/1 
f  71/9/1  73/10/1  74/11/1  72/12/1 
f  73/9/1  75/10/1  76/11/1  74/12/1 
f  75/9/1  77/10/1  78/11/1  76/12/1 
f  79/9/1  80/10/1  81/11/1  82/12/1 
f  80/9/1  83/10/1  29/11/1  81/12/1 
f  83/17/1  84/18/1  30/19/1  29/20/1 
f  84/1/1  85/2/1  33/3/1  30/4/1 
f  85/9/1  86/10/1  87/11/1  33/12/1 
f  86/9/1  88/10/1  89/11/1  87/12/1 
f  88/9/1  90/10/1  91/11/1  89/12/1 
f  90/9/1  92/10/1  93/11/1  91/12/1 
f  92/9/1  94/10/1  35/11/1  93/12/1 
f  94/1/1  95/2/1  36/3/1  35/4/1 
f  95/1/1  96/2/1  39/3/1  36/4/1 
f  96/1/1  97/2/1  41/3/1  39/4/1 
f  97/1/1  98/2/1  43/3/1  41/4/1 
f  98/1/1  99/2/1  45/3/1  43/4/1 
f  99/9/1  100/10/1  101/11/1  45/12/1 
f  100/9/1  102/10/1  103/11/1  101/12/1 
f  102/9/1  104/10/1  105/11/1  103/12/1 
f  104/9/1  106/10/1  107/11/1  105/12/1 
f  106/9/1  108/10/1  109/11/1  107/12/1 
f  108/9/1  110/10/1  111/11/1  109/12/1 
f  110/9/1  112/10/1  47/11/1  111/12/1 
f  112/1/1  113/2/1  48/3/1  47/4/1 
f  114/1/1  115/2/1  50/3/1  49/4/1 
f  115/21/1  116/22/1  53/23/1  50/24/1 
f  116/9/1  117/10/1  118/11/1  53/12/1 
f  117/9/1  119/10/1  120/11/1  118/12/1 
f  119/9/1  121/10/1  122/11/1  120/12/1 
f  121/9/1  123/10/1  124/11/1  122/12/1 
f  123/9/1  125/10/1  126/11/1  124/12/1 
f  125/9/1  127/10/1  128/11/1  126/12/1 
f  127/9/1  129/10/1  55/11/1  128/12/1 
f  129/17/1  130/18/1  56/19/1  55/20/1 
f  130/1/1  131/2/1  59/3/1  56/4/1 
f  131/1/1  132/2/1  61/3/1  59/4/1 
f  132/1/1  133/2/1  63/3/1  61/4/1 
f  133/1/1  134/2/1  65/3/1  63/4/1 
f  134/1/1  135/2/1  67/3/1  65/4/1 
f  135/1/1  136/2/1  69/3/1  67/4/1 
f  136/1/1  137/2/1  71/3/1  69/4/1 
f  137/1/1  138/2/1  73/3/1  71/4/1 
f  138/1/1  139/2/1  75/3/1  73/4/1 
f  139/1/1  140/2/1  77/3/1  75/4/1 
f  141/1/1  142/2/1  80/3/1  79/4/1 
f  142/1/1  143/2/1  83/3/1  80/4/1 
f  143/1/1  144/2/1  84/3/1  83/4/1 
f  144/1/1  145/2/1  85/3/1  84/4/1 
f  145/1/1  146/2/1  86/3/1  85/4/1 
f  146/1/1  147/2/1  88/3/1  86/4/1 
f  147/1/1  148/2/1  90/3/1  88/4/1 
f  148/1/1  149/2/1  92/3/1  90/4/1 
f  149/1/1  150/2/1  94/3/1  92/4/1 
f  150/1/1  151/2/1  95/3/1  94/4/1 
f  151/1/1  152/2/1  96/3/1  95/4/1 
f  152/1/1  153/2/1  97/3/1  96/4/1 
f  153/1/1  154/2/1  98/3/1  97/4/1 
f  154/1/1  155/2/1  99/3/1  98/4/1 
f  155/1/1  156/2/1  100/3/1  99/4/1 
f  156/1/1  157/2/1  102/3/1  100/4/1 
f  157/1/1  158/2/1  104/3/1  102/4/1 
f  158/1/1  159/2/1  106/3/1  104/4/1 
f  159/1/1  160/2/1  108/3/1  106/4/1 
f  160/1/1  161/2/1  110/3/1  108/4/1 
f  161/1/1  162/2/1  112/3/1  110/4/1 
f  162/1/1  163/2/1  113/3/1  112/4/1 
g mesh_[01]_[00]
f  164/25/1  165/26/1  166/27/1  167/28/1 
f  165/29/1  168/30/1  169/31/1  166/32/1 
f  168/29/1  170/30/1  171/31/1  169/32/1 
f  170/29/1  172/30/1  173/31/1  171/32/1 
f  172/33/1  174/34/1  175/35/1  173/36/1 
f  176/25/1  177/26/1  178/27/1  179/28/1 
f  177/29/1  180/30/1  181/31/1  178/32/1 
f  180/29/1  182/30/1  183/31/1  181/32/1 
f  182/29/1  184/30/1  185/31/1  183/32/1 
f  184/29/1  186/30/1  187/31/1  185/32/1 
f  186/29/1  188/30/1  189/31/1  187/32/1 
f  188/29/1  190/30/1  191/31/1  189/32/1 
f  190/33/1  192/34/1  193/35/1  191/36/1 
f  194/25/1  195/26/1  196/27/1  197/28/1 
f  195/29/1  198/30/1  199/31/1  196/32/1 
f  198/29/1  200/30/1  201/31/1  199/32/1 
f  200/29/1  202/30/1  203/31/1  201/32/1 
f  202/29/1  204/30/1  205/31/1  203/32/1 
f  204/29/1  206/30/1  207/31/1  205/32/1 
f  206/33/1  208/34/1  209/35/1  207/36/1 
f  210/37/1  211/38/1  212/39/1  213/40/1 
f  211/41/1  214/42/1  215/43/1  212/44/1 
f  214/41/1  216/42/1  217/43/1  215/44/1 
f  216/41/1  218/42/1  219/43/1  217/44/1 
f  218/45/1  220/46/1  221/47/1  219/48/1 
f  222/25/1  223/26/1  224/27/1  225/28/1 
f  223/29/1  226/30/1  227/31/1  224/32/1 
f  226/29/1  228/30/1  229/31/1  227/32/1 
f  228/29/1  230/30/1  231/31/1  229/32/1 
f  230/33/1  232/34/1  233/35/1  231/36/1 
f  234/49/1  235/50/1  236/51/1  237/52/1 
f  235/37/1  238/38/1  239/39/1  236/40/1 
f  238/41/1  240/42/1  241/43/1  239/44/1 
f  240/41/1  242/42/1  243/43/1  241/44/1 
f  242/41/1  244/42/1  245/43/1  243/44/1 
f  244/45/1  246/46/1  247/47/1  245/48/1 
f  248/37/1  249/38/1  250/39/1  251/40/1 
f  249/41/1  252/42/1  253/43/1  250/44/1 
f  252/41/1  254/42/1  255/43/1  253/44/1 
f  254/41/1  256/42/1  257/43/1  255/44/1 
f  256/45/1  258/46/1  259/47/1  257/48/1 
f  260/25/1  261/26/1  262/27/1  263/28/1 
f  261/29/1  264/30/1  265/31/1  262/32/1 
f  264/29/1  266/30/1  267/31/1  265/32/1 
f  266/29/1  268/30/1  269/31/1  267/32/1 
f  268/33/1  270/34/1  271/35/1  269/36/1 
g mesh_[02]_[00]
f  236/53/1  239/54/1  211/55/1  210/56/1 
f  239/57/1  241/58/1  214/59/1  211/60/1 
f  241/61/1  243/62/1  216/63/1  214/64/1 
f  243/57/1  245/58/1  218/59/1  216/60/1 
f  245/65/1  247/66/1  220/67/1  218/68/1 
f  251/53/1  250/54/1  238/55/1  235/56/1 
f  250/69/1  253/70/1  240/71/1  238/72/1 
f  253/57/1  255/58/1  242/59/1  240/60/1 
f  255/57/1  257/58/1  244/59/1  242/60/1 
f  257/65/1  259/66/1  246/67/1  244/68/1 
f  60/53/1  62/54/1  249/55/1  248/56/1 
f  62/57/1  64/58/1  252/59/1  249/60/1 
f  64/57/1  66/58/1  254/59/1  252/60/1 
f  66/61/1  68/62/1  256/63/1  254/64/1 
f  68/65/1  70/66/1  258/67/1  256/68/1 
g mesh_[03]_[00]
f  172/73/1  174/74/1  175/75/1  173/76/1 
f  272/73/1  273/74/1  174/75/1  172/76/1 
f  274/73/1  275/74/1  273/75/1  272/76/1 
f  276/73/1  277/74/1  275/75/1  274/76/1 
f  231/73/1  233/74/1  277/75/1  276/76/1 
