# Wavefront OBJ file automatically generated by Tiled2Unity

# Vertices (Count = 274)
v -752 -16 0
v -768 -16 0
v -768 0 0
v -752 0 0
v -752 -32 0
v -768 -32 0
v -752 -48 0
v -768 -48 0
v -752 -64 0
v -768 -64 0
v -752 -80 0
v -768 -80 0
v -752 -96 0
v -768 -96 0
v -752 -112 0
v -768 -112 0
v -752 -128 0
v -768 -128 0
v -752 -144 0
v -768 -144 0
v -752 -160 0
v -768 -160 0
v -752 -176 0
v -768 -176 0
v -752 -192 0
v -768 -192 0
v -752 -208 0
v -768 -208 0
v -448 -224 0
v -464 -224 0
v -464 -208 0
v -448 -208 0
v -480 -224 0
v -480 -208 0
v -576 -224 0
v -592 -224 0
v -592 -208 0
v -576 -208 0
v -608 -224 0
v -608 -208 0
v -752 -224 0
v -768 -224 0
v 0 -240 0
v -16 -240 0
v -16 -224 0
v 0 -224 0
v -32 -240 0
v -32 -224 0
v -144 -240 0
v -160 -240 0
v -160 -224 0
v -144 -224 0
v -176 -240 0
v -176 -224 0
v -192 -240 0
v -192 -224 0
v -208 -240 0
v -208 -224 0
v -224 -240 0
v -224 -224 0
v -240 -240 0
v -240 -224 0
v -256 -240 0
v -256 -224 0
v -272 -240 0
v -272 -224 0
v -288 -240 0
v -288 -224 0
v -304 -240 0
v -304 -224 0
v -320 -240 0
v -320 -224 0
v -416 -240 0
v -432 -240 0
v -432 -224 0
v -416 -224 0
v -448 -240 0
v -464 -240 0
v -480 -240 0
v -496 -240 0
v -496 -224 0
v -512 -240 0
v -512 -224 0
v -528 -240 0
v -528 -224 0
v -544 -240 0
v -544 -224 0
v -560 -240 0
v -560 -224 0
v -576 -240 0
v -592 -240 0
v -608 -240 0
v -624 -240 0
v -624 -224 0
v -640 -240 0
v -640 -224 0
v -656 -240 0
v -656 -224 0
v -672 -240 0
v -672 -224 0
v -688 -240 0
v -688 -224 0
v -704 -240 0
v -704 -224 0
v -720 -240 0
v -720 -224 0
v -736 -240 0
v -736 -224 0
v -752 -240 0
v -768 -240 0
v 0 -256 0
v -16 -256 0
v -32 -256 0
v -48 -256 0
v -48 -240 0
v -64 -256 0
v -64 -240 0
v -80 -256 0
v -80 -240 0
v -96 -256 0
v -96 -240 0
v -112 -256 0
v -112 -240 0
v -128 -256 0
v -128 -240 0
v -144 -256 0
v -160 -256 0
v -176 -256 0
v -192 -256 0
v -208 -256 0
v -224 -256 0
v -240 -256 0
v -256 -256 0
v -272 -256 0
v -288 -256 0
v -304 -256 0
v -320 -256 0
v -416 -256 0
v -432 -256 0
v -448 -256 0
v -464 -256 0
v -480 -256 0
v -496 -256 0
v -512 -256 0
v -528 -256 0
v -544 -256 0
v -560 -256 0
v -576 -256 0
v -592 -256 0
v -608 -256 0
v -624 -256 0
v -640 -256 0
v -656 -256 0
v -672 -256 0
v -688 -256 0
v -704 -256 0
v -720 -256 0
v -736 -256 0
v -752 -256 0
v -768 -256 0
v -288 -64 0
v -304 -64 0
v -304 -48 0
v -288 -48 0
v -320 -64 0
v -320 -48 0
v -336 -64 0
v -336 -48 0
v -352 -64 0
v -352 -48 0
v -368 -64 0
v -368 -48 0
v -432 -64 0
v -448 -64 0
v -448 -48 0
v -432 -48 0
v -464 -64 0
v -464 -48 0
v -480 -64 0
v -480 -48 0
v -496 -64 0
v -496 -48 0
v -512 -64 0
v -512 -48 0
v -528 -64 0
v -528 -48 0
v -544 -64 0
v -544 -48 0
v -560 -64 0
v -560 -48 0
v -32 -144 0
v -48 -144 0
v -48 -128 0
v -32 -128 0
v -64 -144 0
v -64 -128 0
v -80 -144 0
v -80 -128 0
v -96 -144 0
v -96 -128 0
v -112 -144 0
v -112 -128 0
v -128 -144 0
v -128 -128 0
v -144 -144 0
v -144 -128 0
v -176 -144 0
v -192 -144 0
v -192 -128 0
v -176 -128 0
v -208 -144 0
v -208 -128 0
v -224 -144 0
v -224 -128 0
v -240 -144 0
v -240 -128 0
v -256 -144 0
v -256 -128 0
v -288 -144 0
v -304 -144 0
v -304 -128 0
v -288 -128 0
v -320 -144 0
v -320 -128 0
v -336 -144 0
v -336 -128 0
v -352 -144 0
v -352 -128 0
v -368 -144 0
v -368 -128 0
v -160 -176 0
v -176 -176 0
v -176 -160 0
v -160 -160 0
v -192 -176 0
v -192 -160 0
v -208 -176 0
v -208 -160 0
v -224 -176 0
v -224 -160 0
v -240 -176 0
v -240 -160 0
v -256 -176 0
v -256 -160 0
v -176 -208 0
v -192 -208 0
v -192 -192 0
v -176 -192 0
v -208 -208 0
v -208 -192 0
v -224 -208 0
v -224 -192 0
v -240 -208 0
v -240 -192 0
v -256 -208 0
v -256 -192 0
v -48 -224 0
v -64 -224 0
v -64 -208 0
v -48 -208 0
v -80 -224 0
v -80 -208 0
v -96 -224 0
v -96 -208 0
v -112 -224 0
v -112 -208 0
v -128 -224 0
v -128 -208 0
v -352 -80 0
v -368 -80 0
v -352 -96 0
v -368 -96 0
v -352 -112 0
v -368 -112 0

# Texture Coorindates (Count = 76)
vt 0.0001220703 0.8126221
vt 0.0625 0.8126221
vt 0.0625 0.875
vt 0.0001220703 0.875
vt 0.1251221 0.8126221
vt 0.1875 0.8126221
vt 0.1875 0.875
vt 0.1251221 0.875
vt 0.06262207 0.8126221
vt 0.125 0.8126221
vt 0.125 0.875
vt 0.06262207 0.875
vt 0.1876221 0.8126221
vt 0.25 0.8126221
vt 0.25 0.875
vt 0.1876221 0.875
vt 0.1251221 0.7501221
vt 0.1875 0.7501221
vt 0.1875 0.8125
vt 0.1251221 0.8125
vt 0.1876221 0.7501221
vt 0.25 0.7501221
vt 0.25 0.8125
vt 0.1876221 0.8125
vt 0.0001220703 0.6251221
vt 0.0625 0.6251221
vt 0.0625 0.6875
vt 0.0001220703 0.6875
vt 0.06262207 0.6251221
vt 0.125 0.6251221
vt 0.125 0.6875
vt 0.06262207 0.6875
vt 0.1251221 0.6251221
vt 0.1875 0.6251221
vt 0.1875 0.6875
vt 0.1251221 0.6875
vt 0.06262207 0.9376221
vt 0.125 0.9376221
vt 0.125 1
vt 0.06262207 1
vt 0.1251221 0.9376221
vt 0.1875 0.9376221
vt 0.1875 1
vt 0.1251221 1
vt 0.1876221 0.9376221
vt 0.25 0.9376221
vt 0.25 1
vt 0.1876221 1
vt 0.1876221 0.6876221
vt 0.25 0.6876221
vt 0.25 0.75
vt 0.1876221 0.75
vt 0.06262207 0.8751221
vt 0.125 0.8751221
vt 0.125 0.9375
vt 0.06262207 0.9375
vt 0.1251221 0.8751221
vt 0.1875 0.8751221
vt 0.1875 0.9375
vt 0.1251221 0.9375
vt 0.0001220703 0.8751221
vt 0.0625 0.8751221
vt 0.0625 0.9375
vt 0.0001220703 0.9375
vt 0.1876221 0.8751221
vt 0.25 0.8751221
vt 0.25 0.9375
vt 0.1876221 0.9375
vt 0.0001220703 0.9376221
vt 0.0625 0.9376221
vt 0.0625 1
vt 0.0001220703 1
vt 0.1876221 0.6251221
vt 0.25 0.6251221
vt 0.25 0.6875
vt 0.1876221 0.6875

# Normal
vn 0 0 -1

# Groups (Count = 4)
g mesh_[00]_[00]
f  1/1/1  2/2/1  3/3/1  4/4/1 
f  5/1/1  6/2/1  2/3/1  1/4/1 
f  7/1/1  8/2/1  6/3/1  5/4/1 
f  9/1/1  10/2/1  8/3/1  7/4/1 
f  11/1/1  12/2/1  10/3/1  9/4/1 
f  13/1/1  14/2/1  12/3/1  11/4/1 
f  15/1/1  16/2/1  14/3/1  13/4/1 
f  17/1/1  18/2/1  16/3/1  15/4/1 
f  19/1/1  20/2/1  18/3/1  17/4/1 
f  21/1/1  22/2/1  20/3/1  19/4/1 
f  23/1/1  24/2/1  22/3/1  21/4/1 
f  25/1/1  26/2/1  24/3/1  23/4/1 
f  27/1/1  28/2/1  26/3/1  25/4/1 
f  29/5/1  30/6/1  31/7/1  32/8/1 
f  30/9/1  33/10/1  34/11/1  31/12/1 
f  35/9/1  36/10/1  37/11/1  38/12/1 
f  36/13/1  39/14/1  40/15/1  37/16/1 
f  41/1/1  42/2/1  28/3/1  27/4/1 
f  43/9/1  44/10/1  45/11/1  46/12/1 
f  44/13/1  47/14/1  48/15/1  45/16/1 
f  49/5/1  50/6/1  51/7/1  52/8/1 
f  50/9/1  53/10/1  54/11/1  51/12/1 
f  53/9/1  55/10/1  56/11/1  54/12/1 
f  55/9/1  57/10/1  58/11/1  56/12/1 
f  57/9/1  59/10/1  60/11/1  58/12/1 
f  59/9/1  61/10/1  62/11/1  60/12/1 
f  61/9/1  63/10/1  64/11/1  62/12/1 
f  63/9/1  65/10/1  66/11/1  64/12/1 
f  65/9/1  67/10/1  68/11/1  66/12/1 
f  67/9/1  69/10/1  70/11/1  68/12/1 
f  69/9/1  71/10/1  72/11/1  70/12/1 
f  73/9/1  74/10/1  75/11/1  76/12/1 
f  74/9/1  77/10/1  29/11/1  75/12/1 
f  77/17/1  78/18/1  30/19/1  29/20/1 
f  78/1/1  79/2/1  33/3/1  30/4/1 
f  79/9/1  80/10/1  81/11/1  33/12/1 
f  80/9/1  82/10/1  83/11/1  81/12/1 
f  82/9/1  84/10/1  85/11/1  83/12/1 
f  84/9/1  86/10/1  87/11/1  85/12/1 
f  86/9/1  88/10/1  89/11/1  87/12/1 
f  88/9/1  90/10/1  35/11/1  89/12/1 
f  90/1/1  91/2/1  36/3/1  35/4/1 
f  91/21/1  92/22/1  39/23/1  36/24/1 
f  92/9/1  93/10/1  94/11/1  39/12/1 
f  93/9/1  95/10/1  96/11/1  94/12/1 
f  95/9/1  97/10/1  98/11/1  96/12/1 
f  97/9/1  99/10/1  100/11/1  98/12/1 
f  99/9/1  101/10/1  102/11/1  100/12/1 
f  101/9/1  103/10/1  104/11/1  102/12/1 
f  103/9/1  105/10/1  106/11/1  104/12/1 
f  105/9/1  107/10/1  108/11/1  106/12/1 
f  107/9/1  109/10/1  41/11/1  108/12/1 
f  109/1/1  110/2/1  42/3/1  41/4/1 
f  111/1/1  112/2/1  44/3/1  43/4/1 
f  112/21/1  113/22/1  47/23/1  44/24/1 
f  113/9/1  114/10/1  115/11/1  47/12/1 
f  114/9/1  116/10/1  117/11/1  115/12/1 
f  116/9/1  118/10/1  119/11/1  117/12/1 
f  118/9/1  120/10/1  121/11/1  119/12/1 
f  120/9/1  122/10/1  123/11/1  121/12/1 
f  122/9/1  124/10/1  125/11/1  123/12/1 
f  124/9/1  126/10/1  49/11/1  125/12/1 
f  126/17/1  127/18/1  50/19/1  49/20/1 
f  127/1/1  128/2/1  53/3/1  50/4/1 
f  128/1/1  129/2/1  55/3/1  53/4/1 
f  129/1/1  130/2/1  57/3/1  55/4/1 
f  130/1/1  131/2/1  59/3/1  57/4/1 
f  131/1/1  132/2/1  61/3/1  59/4/1 
f  132/1/1  133/2/1  63/3/1  61/4/1 
f  133/1/1  134/2/1  65/3/1  63/4/1 
f  134/1/1  135/2/1  67/3/1  65/4/1 
f  135/1/1  136/2/1  69/3/1  67/4/1 
f  136/1/1  137/2/1  71/3/1  69/4/1 
f  138/1/1  139/2/1  74/3/1  73/4/1 
f  139/1/1  140/2/1  77/3/1  74/4/1 
f  140/1/1  141/2/1  78/3/1  77/4/1 
f  141/1/1  142/2/1  79/3/1  78/4/1 
f  142/1/1  143/2/1  80/3/1  79/4/1 
f  143/1/1  144/2/1  82/3/1  80/4/1 
f  144/1/1  145/2/1  84/3/1  82/4/1 
f  145/1/1  146/2/1  86/3/1  84/4/1 
f  146/1/1  147/2/1  88/3/1  86/4/1 
f  147/1/1  148/2/1  90/3/1  88/4/1 
f  148/1/1  149/2/1  91/3/1  90/4/1 
f  149/1/1  150/2/1  92/3/1  91/4/1 
f  150/1/1  151/2/1  93/3/1  92/4/1 
f  151/1/1  152/2/1  95/3/1  93/4/1 
f  152/1/1  153/2/1  97/3/1  95/4/1 
f  153/1/1  154/2/1  99/3/1  97/4/1 
f  154/1/1  155/2/1  101/3/1  99/4/1 
f  155/1/1  156/2/1  103/3/1  101/4/1 
f  156/1/1  157/2/1  105/3/1  103/4/1 
f  157/1/1  158/2/1  107/3/1  105/4/1 
f  158/1/1  159/2/1  109/3/1  107/4/1 
f  159/1/1  160/2/1  110/3/1  109/4/1 
g mesh_[01]_[00]
f  161/25/1  162/26/1  163/27/1  164/28/1 
f  162/29/1  165/30/1  166/31/1  163/32/1 
f  165/29/1  167/30/1  168/31/1  166/32/1 
f  167/29/1  169/30/1  170/31/1  168/32/1 
f  169/33/1  171/34/1  172/35/1  170/36/1 
f  173/25/1  174/26/1  175/27/1  176/28/1 
f  174/29/1  177/30/1  178/31/1  175/32/1 
f  177/29/1  179/30/1  180/31/1  178/32/1 
f  179/29/1  181/30/1  182/31/1  180/32/1 
f  181/29/1  183/30/1  184/31/1  182/32/1 
f  183/29/1  185/30/1  186/31/1  184/32/1 
f  185/29/1  187/30/1  188/31/1  186/32/1 
f  187/33/1  189/34/1  190/35/1  188/36/1 
f  191/25/1  192/26/1  193/27/1  194/28/1 
f  192/29/1  195/30/1  196/31/1  193/32/1 
f  195/29/1  197/30/1  198/31/1  196/32/1 
f  197/29/1  199/30/1  200/31/1  198/32/1 
f  199/29/1  201/30/1  202/31/1  200/32/1 
f  201/29/1  203/30/1  204/31/1  202/32/1 
f  203/33/1  205/34/1  206/35/1  204/36/1 
f  207/37/1  208/38/1  209/39/1  210/40/1 
f  208/41/1  211/42/1  212/43/1  209/44/1 
f  211/41/1  213/42/1  214/43/1  212/44/1 
f  213/41/1  215/42/1  216/43/1  214/44/1 
f  215/45/1  217/46/1  218/47/1  216/48/1 
f  219/25/1  220/26/1  221/27/1  222/28/1 
f  220/29/1  223/30/1  224/31/1  221/32/1 
f  223/29/1  225/30/1  226/31/1  224/32/1 
f  225/29/1  227/30/1  228/31/1  226/32/1 
f  227/33/1  229/34/1  230/35/1  228/36/1 
f  231/49/1  232/50/1  233/51/1  234/52/1 
f  232/37/1  235/38/1  236/39/1  233/40/1 
f  235/41/1  237/42/1  238/43/1  236/44/1 
f  237/41/1  239/42/1  240/43/1  238/44/1 
f  239/41/1  241/42/1  242/43/1  240/44/1 
f  241/45/1  243/46/1  244/47/1  242/48/1 
f  245/37/1  246/38/1  247/39/1  248/40/1 
f  246/41/1  249/42/1  250/43/1  247/44/1 
f  249/41/1  251/42/1  252/43/1  250/44/1 
f  251/41/1  253/42/1  254/43/1  252/44/1 
f  253/45/1  255/46/1  256/47/1  254/48/1 
f  257/25/1  258/26/1  259/27/1  260/28/1 
f  258/29/1  261/30/1  262/31/1  259/32/1 
f  261/29/1  263/30/1  264/31/1  262/32/1 
f  263/29/1  265/30/1  266/31/1  264/32/1 
f  265/33/1  267/34/1  268/35/1  266/36/1 
g mesh_[02]_[00]
f  233/53/1  236/54/1  208/55/1  207/56/1 
f  236/57/1  238/58/1  211/59/1  208/60/1 
f  238/61/1  240/62/1  213/63/1  211/64/1 
f  240/57/1  242/58/1  215/59/1  213/60/1 
f  242/65/1  244/66/1  217/67/1  215/68/1 
f  248/53/1  247/54/1  235/55/1  232/56/1 
f  247/69/1  250/70/1  237/71/1  235/72/1 
f  250/57/1  252/58/1  239/59/1  237/60/1 
f  252/57/1  254/58/1  241/59/1  239/60/1 
f  254/65/1  256/66/1  243/67/1  241/68/1 
f  54/53/1  56/54/1  246/55/1  245/56/1 
f  56/57/1  58/58/1  249/59/1  246/60/1 
f  58/57/1  60/58/1  251/59/1  249/60/1 
f  60/61/1  62/62/1  253/63/1  251/64/1 
f  62/65/1  64/66/1  255/67/1  253/68/1 
g mesh_[03]_[00]
f  169/73/1  171/74/1  172/75/1  170/76/1 
f  269/73/1  270/74/1  171/75/1  169/76/1 
f  271/73/1  272/74/1  270/75/1  269/76/1 
f  273/73/1  274/74/1  272/75/1  271/76/1 
f  228/73/1  230/74/1  274/75/1  273/76/1 
