# Wavefront OBJ file automatically generated by Tiled2Unity

# Vertices (Count = 265)
v -592 -192 0
v -608 -192 0
v -608 -176 0
v -592 -176 0
v -624 -192 0
v -624 -176 0
v -640 -192 0
v -640 -176 0
v -656 -192 0
v -656 -176 0
v -672 -192 0
v -672 -176 0
v -576 -208 0
v -592 -208 0
v -576 -192 0
v -608 -208 0
v -624 -208 0
v -640 -208 0
v -656 -208 0
v -672 -208 0
v -560 -224 0
v -576 -224 0
v -560 -208 0
v -592 -224 0
v -608 -224 0
v -624 -224 0
v -640 -224 0
v -656 -224 0
v -672 -224 0
v 0 -240 0
v -16 -240 0
v -16 -224 0
v 0 -224 0
v -32 -240 0
v -32 -224 0
v -144 -240 0
v -160 -240 0
v -160 -224 0
v -144 -224 0
v -176 -240 0
v -176 -224 0
v -192 -240 0
v -192 -224 0
v -208 -240 0
v -208 -224 0
v -224 -240 0
v -224 -224 0
v -240 -240 0
v -240 -224 0
v -256 -240 0
v -256 -224 0
v -272 -240 0
v -272 -224 0
v -288 -240 0
v -288 -224 0
v -304 -240 0
v -304 -224 0
v -320 -240 0
v -320 -224 0
v -336 -240 0
v -336 -224 0
v -352 -240 0
v -352 -224 0
v -368 -240 0
v -368 -224 0
v -384 -240 0
v -384 -224 0
v -400 -240 0
v -400 -224 0
v -416 -240 0
v -416 -224 0
v -432 -240 0
v -432 -224 0
v -448 -240 0
v -448 -224 0
v -464 -240 0
v -464 -224 0
v -480 -240 0
v -480 -224 0
v -496 -240 0
v -496 -224 0
v -512 -240 0
v -512 -224 0
v -528 -240 0
v -528 -224 0
v -544 -240 0
v -544 -224 0
v -560 -240 0
v -576 -240 0
v -592 -240 0
v -608 -240 0
v -624 -240 0
v -640 -240 0
v -656 -240 0
v -672 -240 0
v -688 -240 0
v -688 -224 0
v -704 -240 0
v -704 -224 0
v -720 -240 0
v -720 -224 0
v -736 -240 0
v -736 -224 0
v -752 -240 0
v -752 -224 0
v -768 -240 0
v -768 -224 0
v 0 -256 0
v -16 -256 0
v -32 -256 0
v -48 -256 0
v -48 -240 0
v -64 -256 0
v -64 -240 0
v -80 -256 0
v -80 -240 0
v -96 -256 0
v -96 -240 0
v -112 -256 0
v -112 -240 0
v -128 -256 0
v -128 -240 0
v -144 -256 0
v -160 -256 0
v -176 -256 0
v -192 -256 0
v -208 -256 0
v -224 -256 0
v -240 -256 0
v -256 -256 0
v -272 -256 0
v -288 -256 0
v -304 -256 0
v -320 -256 0
v -336 -256 0
v -352 -256 0
v -368 -256 0
v -384 -256 0
v -400 -256 0
v -416 -256 0
v -432 -256 0
v -448 -256 0
v -464 -256 0
v -480 -256 0
v -496 -256 0
v -512 -256 0
v -528 -256 0
v -544 -256 0
v -560 -256 0
v -576 -256 0
v -592 -256 0
v -608 -256 0
v -624 -256 0
v -640 -256 0
v -656 -256 0
v -672 -256 0
v -688 -256 0
v -704 -256 0
v -720 -256 0
v -736 -256 0
v -752 -256 0
v -768 -256 0
v -288 -48 0
v -304 -48 0
v -304 -32 0
v -288 -32 0
v -320 -48 0
v -320 -32 0
v -336 -48 0
v -336 -32 0
v -352 -48 0
v -352 -32 0
v -368 -48 0
v -368 -32 0
v -432 -48 0
v -448 -48 0
v -448 -32 0
v -432 -32 0
v -464 -48 0
v -464 -32 0
v -480 -48 0
v -480 -32 0
v -496 -48 0
v -496 -32 0
v -512 -48 0
v -512 -32 0
v -528 -48 0
v -528 -32 0
v -544 -48 0
v -544 -32 0
v -560 -48 0
v -560 -32 0
v -176 -144 0
v -192 -144 0
v -192 -128 0
v -176 -128 0
v -208 -144 0
v -208 -128 0
v -224 -144 0
v -224 -128 0
v -240 -144 0
v -240 -128 0
v -256 -144 0
v -256 -128 0
v -288 -144 0
v -304 -144 0
v -304 -128 0
v -288 -128 0
v -320 -144 0
v -320 -128 0
v -336 -144 0
v -336 -128 0
v -352 -144 0
v -352 -128 0
v -368 -144 0
v -368 -128 0
v -160 -176 0
v -176 -176 0
v -176 -160 0
v -160 -160 0
v -192 -176 0
v -192 -160 0
v -208 -176 0
v -208 -160 0
v -224 -176 0
v -224 -160 0
v -240 -176 0
v -240 -160 0
v -256 -176 0
v -256 -160 0
v -688 -192 0
v -688 -176 0
v -176 -208 0
v -192 -208 0
v -192 -192 0
v -176 -192 0
v -208 -208 0
v -208 -192 0
v -224 -208 0
v -224 -192 0
v -240 -208 0
v -240 -192 0
v -256 -208 0
v -256 -192 0
v -48 -224 0
v -64 -224 0
v -64 -208 0
v -48 -208 0
v -80 -224 0
v -80 -208 0
v -96 -224 0
v -96 -208 0
v -112 -224 0
v -112 -208 0
v -128 -224 0
v -128 -208 0
v -352 -64 0
v -368 -64 0
v -352 -80 0
v -368 -80 0
v -352 -96 0
v -368 -96 0
v -352 -112 0
v -368 -112 0
v -688 -208 0

# Texture Coorindates (Count = 76)
vt 0.1251221 0.8126221
vt 0.1875 0.8126221
vt 0.1875 0.875
vt 0.1251221 0.875
vt 0.06262207 0.8126221
vt 0.125 0.8126221
vt 0.125 0.875
vt 0.06262207 0.875
vt 0.1251221 0.7501221
vt 0.1875 0.7501221
vt 0.1875 0.8125
vt 0.1251221 0.8125
vt 0.0001220703 0.8126221
vt 0.0625 0.8126221
vt 0.0625 0.875
vt 0.0001220703 0.875
vt 0.1876221 0.8126221
vt 0.25 0.8126221
vt 0.25 0.875
vt 0.1876221 0.875
vt 0.1876221 0.7501221
vt 0.25 0.7501221
vt 0.25 0.8125
vt 0.1876221 0.8125
vt 0.0001220703 0.6251221
vt 0.0625 0.6251221
vt 0.0625 0.6875
vt 0.0001220703 0.6875
vt 0.06262207 0.6251221
vt 0.125 0.6251221
vt 0.125 0.6875
vt 0.06262207 0.6875
vt 0.1251221 0.6251221
vt 0.1875 0.6251221
vt 0.1875 0.6875
vt 0.1251221 0.6875
vt 0.06262207 0.9376221
vt 0.125 0.9376221
vt 0.125 1
vt 0.06262207 1
vt 0.1251221 0.9376221
vt 0.1875 0.9376221
vt 0.1875 1
vt 0.1251221 1
vt 0.1876221 0.9376221
vt 0.25 0.9376221
vt 0.25 1
vt 0.1876221 1
vt 0.1876221 0.6876221
vt 0.25 0.6876221
vt 0.25 0.75
vt 0.1876221 0.75
vt 0.06262207 0.8751221
vt 0.125 0.8751221
vt 0.125 0.9375
vt 0.06262207 0.9375
vt 0.1251221 0.8751221
vt 0.1875 0.8751221
vt 0.1875 0.9375
vt 0.1251221 0.9375
vt 0.0001220703 0.8751221
vt 0.0625 0.8751221
vt 0.0625 0.9375
vt 0.0001220703 0.9375
vt 0.1876221 0.8751221
vt 0.25 0.8751221
vt 0.25 0.9375
vt 0.1876221 0.9375
vt 0.0001220703 0.9376221
vt 0.0625 0.9376221
vt 0.0625 1
vt 0.0001220703 1
vt 0.1876221 0.6251221
vt 0.25 0.6251221
vt 0.25 0.6875
vt 0.1876221 0.6875

# Normal
vn 0 0 -1

# Groups (Count = 4)
g mesh_[00]_[00]
f  1/1/1  2/2/1  3/3/1  4/4/1 
f  2/5/1  5/6/1  6/7/1  3/8/1 
f  5/5/1  7/6/1  8/7/1  6/8/1 
f  7/5/1  9/6/1  10/7/1  8/8/1 
f  9/5/1  11/6/1  12/7/1  10/8/1 
f  13/1/1  14/2/1  1/3/1  15/4/1 
f  14/9/1  16/10/1  2/11/1  1/12/1 
f  16/13/1  17/14/1  5/15/1  2/16/1 
f  17/13/1  18/14/1  7/15/1  5/16/1 
f  18/13/1  19/14/1  9/15/1  7/16/1 
f  19/13/1  20/14/1  11/15/1  9/16/1 
f  21/1/1  22/2/1  13/3/1  23/4/1 
f  22/9/1  24/10/1  14/11/1  13/12/1 
f  24/13/1  25/14/1  16/15/1  14/16/1 
f  25/13/1  26/14/1  17/15/1  16/16/1 
f  26/13/1  27/14/1  18/15/1  17/16/1 
f  27/13/1  28/14/1  19/15/1  18/16/1 
f  28/13/1  29/14/1  20/15/1  19/16/1 
f  30/5/1  31/6/1  32/7/1  33/8/1 
f  31/17/1  34/18/1  35/19/1  32/20/1 
f  36/1/1  37/2/1  38/3/1  39/4/1 
f  37/5/1  40/6/1  41/7/1  38/8/1 
f  40/5/1  42/6/1  43/7/1  41/8/1 
f  42/5/1  44/6/1  45/7/1  43/8/1 
f  44/5/1  46/6/1  47/7/1  45/8/1 
f  46/5/1  48/6/1  49/7/1  47/8/1 
f  48/5/1  50/6/1  51/7/1  49/8/1 
f  50/5/1  52/6/1  53/7/1  51/8/1 
f  52/5/1  54/6/1  55/7/1  53/8/1 
f  54/5/1  56/6/1  57/7/1  55/8/1 
f  56/5/1  58/6/1  59/7/1  57/8/1 
f  58/5/1  60/6/1  61/7/1  59/8/1 
f  60/5/1  62/6/1  63/7/1  61/8/1 
f  62/5/1  64/6/1  65/7/1  63/8/1 
f  64/5/1  66/6/1  67/7/1  65/8/1 
f  66/5/1  68/6/1  69/7/1  67/8/1 
f  68/5/1  70/6/1  71/7/1  69/8/1 
f  70/5/1  72/6/1  73/7/1  71/8/1 
f  72/5/1  74/6/1  75/7/1  73/8/1 
f  74/5/1  76/6/1  77/7/1  75/8/1 
f  76/5/1  78/6/1  79/7/1  77/8/1 
f  78/5/1  80/6/1  81/7/1  79/8/1 
f  80/5/1  82/6/1  83/7/1  81/8/1 
f  82/5/1  84/6/1  85/7/1  83/8/1 
f  84/5/1  86/6/1  87/7/1  85/8/1 
f  86/5/1  88/6/1  21/7/1  87/8/1 
f  88/9/1  89/10/1  22/11/1  21/12/1 
f  89/13/1  90/14/1  24/15/1  22/16/1 
f  90/13/1  91/14/1  25/15/1  24/16/1 
f  91/13/1  92/14/1  26/15/1  25/16/1 
f  92/13/1  93/14/1  27/15/1  26/16/1 
f  93/13/1  94/14/1  28/15/1  27/16/1 
f  94/13/1  95/14/1  29/15/1  28/16/1 
f  95/5/1  96/6/1  97/7/1  29/8/1 
f  96/5/1  98/6/1  99/7/1  97/8/1 
f  98/5/1  100/6/1  101/7/1  99/8/1 
f  100/5/1  102/6/1  103/7/1  101/8/1 
f  102/5/1  104/6/1  105/7/1  103/8/1 
f  104/5/1  106/6/1  107/7/1  105/8/1 
f  108/13/1  109/14/1  31/15/1  30/16/1 
f  109/21/1  110/22/1  34/23/1  31/24/1 
f  110/5/1  111/6/1  112/7/1  34/8/1 
f  111/5/1  113/6/1  114/7/1  112/8/1 
f  113/5/1  115/6/1  116/7/1  114/8/1 
f  115/5/1  117/6/1  118/7/1  116/8/1 
f  117/5/1  119/6/1  120/7/1  118/8/1 
f  119/5/1  121/6/1  122/7/1  120/8/1 
f  121/5/1  123/6/1  36/7/1  122/8/1 
f  123/9/1  124/10/1  37/11/1  36/12/1 
f  124/13/1  125/14/1  40/15/1  37/16/1 
f  125/13/1  126/14/1  42/15/1  40/16/1 
f  126/13/1  127/14/1  44/15/1  42/16/1 
f  127/13/1  128/14/1  46/15/1  44/16/1 
f  128/13/1  129/14/1  48/15/1  46/16/1 
f  129/13/1  130/14/1  50/15/1  48/16/1 
f  130/13/1  131/14/1  52/15/1  50/16/1 
f  131/13/1  132/14/1  54/15/1  52/16/1 
f  132/13/1  133/14/1  56/15/1  54/16/1 
f  133/13/1  134/14/1  58/15/1  56/16/1 
f  134/13/1  135/14/1  60/15/1  58/16/1 
f  135/13/1  136/14/1  62/15/1  60/16/1 
f  136/13/1  137/14/1  64/15/1  62/16/1 
f  137/13/1  138/14/1  66/15/1  64/16/1 
f  138/13/1  139/14/1  68/15/1  66/16/1 
f  139/13/1  140/14/1  70/15/1  68/16/1 
f  140/13/1  141/14/1  72/15/1  70/16/1 
f  141/13/1  142/14/1  74/15/1  72/16/1 
f  142/13/1  143/14/1  76/15/1  74/16/1 
f  143/13/1  144/14/1  78/15/1  76/16/1 
f  144/13/1  145/14/1  80/15/1  78/16/1 
f  145/13/1  146/14/1  82/15/1  80/16/1 
f  146/13/1  147/14/1  84/15/1  82/16/1 
f  147/13/1  148/14/1  86/15/1  84/16/1 
f  148/13/1  149/14/1  88/15/1  86/16/1 
f  149/13/1  150/14/1  89/15/1  88/16/1 
f  150/13/1  151/14/1  90/15/1  89/16/1 
f  151/13/1  152/14/1  91/15/1  90/16/1 
f  152/13/1  153/14/1  92/15/1  91/16/1 
f  153/13/1  154/14/1  93/15/1  92/16/1 
f  154/13/1  155/14/1  94/15/1  93/16/1 
f  155/13/1  156/14/1  95/15/1  94/16/1 
f  156/13/1  157/14/1  96/15/1  95/16/1 
f  157/13/1  158/14/1  98/15/1  96/16/1 
f  158/13/1  159/14/1  100/15/1  98/16/1 
f  159/13/1  160/14/1  102/15/1  100/16/1 
f  160/13/1  161/14/1  104/15/1  102/16/1 
f  161/13/1  162/14/1  106/15/1  104/16/1 
g mesh_[01]_[00]
f  163/25/1  164/26/1  165/27/1  166/28/1 
f  164/29/1  167/30/1  168/31/1  165/32/1 
f  167/29/1  169/30/1  170/31/1  168/32/1 
f  169/29/1  171/30/1  172/31/1  170/32/1 
f  171/33/1  173/34/1  174/35/1  172/36/1 
f  175/25/1  176/26/1  177/27/1  178/28/1 
f  176/29/1  179/30/1  180/31/1  177/32/1 
f  179/29/1  181/30/1  182/31/1  180/32/1 
f  181/29/1  183/30/1  184/31/1  182/32/1 
f  183/29/1  185/30/1  186/31/1  184/32/1 
f  185/29/1  187/30/1  188/31/1  186/32/1 
f  187/29/1  189/30/1  190/31/1  188/32/1 
f  189/33/1  191/34/1  192/35/1  190/36/1 
f  193/37/1  194/38/1  195/39/1  196/40/1 
f  194/41/1  197/42/1  198/43/1  195/44/1 
f  197/41/1  199/42/1  200/43/1  198/44/1 
f  199/41/1  201/42/1  202/43/1  200/44/1 
f  201/45/1  203/46/1  204/47/1  202/48/1 
f  205/25/1  206/26/1  207/27/1  208/28/1 
f  206/29/1  209/30/1  210/31/1  207/32/1 
f  209/29/1  211/30/1  212/31/1  210/32/1 
f  211/29/1  213/30/1  214/31/1  212/32/1 
f  213/33/1  215/34/1  216/35/1  214/36/1 
f  217/49/1  218/50/1  219/51/1  220/52/1 
f  218/37/1  221/38/1  222/39/1  219/40/1 
f  221/41/1  223/42/1  224/43/1  222/44/1 
f  223/41/1  225/42/1  226/43/1  224/44/1 
f  225/41/1  227/42/1  228/43/1  226/44/1 
f  227/45/1  229/46/1  230/47/1  228/48/1 
f  11/33/1  231/34/1  232/35/1  12/36/1 
f  233/37/1  234/38/1  235/39/1  236/40/1 
f  234/41/1  237/42/1  238/43/1  235/44/1 
f  237/41/1  239/42/1  240/43/1  238/44/1 
f  239/41/1  241/42/1  242/43/1  240/44/1 
f  241/45/1  243/46/1  244/47/1  242/48/1 
f  245/25/1  246/26/1  247/27/1  248/28/1 
f  246/29/1  249/30/1  250/31/1  247/32/1 
f  249/29/1  251/30/1  252/31/1  250/32/1 
f  251/29/1  253/30/1  254/31/1  252/32/1 
f  253/33/1  255/34/1  256/35/1  254/36/1 
g mesh_[02]_[00]
f  219/53/1  222/54/1  194/55/1  193/56/1 
f  222/57/1  224/58/1  197/59/1  194/60/1 
f  224/61/1  226/62/1  199/63/1  197/64/1 
f  226/57/1  228/58/1  201/59/1  199/60/1 
f  228/65/1  230/66/1  203/67/1  201/68/1 
f  236/53/1  235/54/1  221/55/1  218/56/1 
f  235/69/1  238/70/1  223/71/1  221/72/1 
f  238/57/1  240/58/1  225/59/1  223/60/1 
f  240/57/1  242/58/1  227/59/1  225/60/1 
f  242/65/1  244/66/1  229/67/1  227/68/1 
f  41/53/1  43/54/1  234/55/1  233/56/1 
f  43/57/1  45/58/1  237/59/1  234/60/1 
f  45/57/1  47/58/1  239/59/1  237/60/1 
f  47/61/1  49/62/1  241/63/1  239/64/1 
f  49/65/1  51/66/1  243/67/1  241/68/1 
g mesh_[03]_[00]
f  171/73/1  173/74/1  174/75/1  172/76/1 
f  257/73/1  258/74/1  173/75/1  171/76/1 
f  259/73/1  260/74/1  258/75/1  257/76/1 
f  261/73/1  262/74/1  260/75/1  259/76/1 
f  263/73/1  264/74/1  262/75/1  261/76/1 
f  214/73/1  216/74/1  264/75/1  263/76/1 
f  11/73/1  231/74/1  232/75/1  12/76/1 
f  20/73/1  265/74/1  231/75/1  11/76/1 
f  29/73/1  97/74/1  265/75/1  20/76/1 
